<svg id="Capa_1" enable-background="new 0 0 512.004 512.004" height="512" viewBox="0 0 512.004 512.004" width="512" xmlns="http://www.w3.org/2000/svg" xmlns:xlink="http://www.w3.org/1999/xlink"><linearGradient id="SVGID_1_" gradientUnits="userSpaceOnUse" x1="256.002" x2="256.002" y1="512.004" y2="0"><stop offset="0" stop-color="#fd5900"/><stop offset="1" stop-color="#ffde00"/></linearGradient><g><g><path d="m454.031 196.004 55.454-82.68c4.385-6.525 2.198-16.369-4.16-20.801-1.267-.839-142.577-71.401-181.611-90.938-6.753-3.384-14.985-1.172-19.189 5.098l-48.52 72.279-48.52-72.279c-4.204-6.299-12.407-8.481-19.189-5.098l-180 90c-7.599 3.795-10.507 14.66-5.771 21.738l55.454 82.68-54.454 81.68c-4.726 7.068-1.843 17.935 5.771 21.738l51.709 25.854v81.728c0 5.684 3.208 10.869 8.291 13.418l180 90c2.109 1.055 4.409 1.582 6.709 1.582s4.6-.527 6.709-1.582l180-90c5.083-2.549 8.291-7.734 8.291-13.418v-81.728l51.709-25.854c3.567-1.805 6.5-5.715 7.645-9.602.939-3.909.325-8.85-1.873-12.136zm-131.885-161.664 152.952 76.483-44.228 65.841-152.959-76.479zm80.313 161.664-146.455 73.228-146.455-73.228 146.455-73.228zm-365.548-85.181 152.952-76.483 44.235 65.845-152.959 76.479zm1 169.362 43.228-64.841 152.959 76.479-43.235 64.845zm383.093 117.547-165 82.5-165-82.5v-57.455l98.291 49.146c2.139 1.069 4.438 1.582 6.694 1.582 4.878 0 9.624-2.388 12.495-6.68l47.52-71.279 47.52 71.279c2.871 4.307 7.617 6.68 12.495 6.68 2.256 0 4.556-.513 6.694-1.582l98.291-49.146zm-99.858-41.064-43.235-64.845 152.959-76.479 43.228 64.841z" fill="url(#SVGID_1_)"/></g></g></svg>