<?xml version="1.0" encoding="iso-8859-1"?>
<!-- Generator: Adobe Illustrator 19.0.0, SVG Export Plug-In . SVG Version: 6.00 Build 0)  -->
<svg version="1.1" id="Capa_1" xmlns="http://www.w3.org/2000/svg" xmlns:xlink="http://www.w3.org/1999/xlink" x="0px" y="0px"
	 viewBox="0 0 512 512" style="enable-background:new 0 0 512 512;" xml:space="preserve">
<g>
	
		<linearGradient id="SVGID_1_" gradientUnits="userSpaceOnUse" x1="-43.0908" y1="623.2109" x2="17.0722" y2="623.2109" gradientTransform="matrix(8.5333 0 0 -8.5333 369.1334 5433.2671)">
		<stop  offset="0" style="stop-color:#00A2CC"/>
		<stop  offset="1" style="stop-color:#2B32B2"/>
	</linearGradient>
	<rect x="68.267" y="106.667" style="fill:url(#SVGID_1_);" width="119.467" height="17.067"/>
	
		<linearGradient id="SVGID_2_" gradientUnits="userSpaceOnUse" x1="-43.0908" y1="608.7109" x2="17.0722" y2="608.7109" gradientTransform="matrix(8.5333 0 0 -8.5333 369.1334 5433.2671)">
		<stop  offset="0" style="stop-color:#00A2CC"/>
		<stop  offset="1" style="stop-color:#2B32B2"/>
	</linearGradient>
	<path style="fill:url(#SVGID_2_);" d="M434.432,354.133h34.901c4.71,0,8.533-3.823,8.533-8.533V209.067
		c0-4.71-3.823-8.533-8.533-8.533h-42.667v-93.867c0-4.71-3.823-8.533-8.533-8.533H307.2V81.067c0-4.71-3.823-8.533-8.533-8.533
		h-256c-4.71,0-8.533,3.823-8.533,8.533V140.8H0v17.067h34.133V345.6c0,4.71,3.823,8.533,8.533,8.533h26.368
		c2.364,13.952,10.394,26.308,22.187,34.133H0v17.067h512v-17.067h-99.755C424.038,380.442,432.068,368.085,434.432,354.133z
		 M307.2,115.2h102.4v93.867c0,4.71,3.823,8.533,8.533,8.533H460.8v119.467h-26.368c-4.685-27.853-31.061-46.635-58.914-41.95
		c-21.495,3.618-38.332,20.454-41.95,41.95H307.2V115.2z M69.035,337.067H51.2v-179.2H128V140.8H51.2V89.6h238.933v247.467H169.899
		c-4.685-27.853-31.061-46.635-58.914-41.95C89.489,298.735,72.653,315.571,69.035,337.067z M119.467,379.733
		c-18.85,0-34.133-15.283-34.133-34.133s15.283-34.133,34.133-34.133S153.6,326.75,153.6,345.6S138.317,379.733,119.467,379.733z
		 M147.712,388.267c11.793-7.825,19.823-20.181,22.187-34.133h163.669c2.364,13.952,10.394,26.308,22.187,34.133H147.712z
		 M384,379.733c-18.85,0-34.133-15.283-34.133-34.133S365.15,311.467,384,311.467s34.133,15.283,34.133,34.133
		S402.85,379.733,384,379.733z"/>
	
		<linearGradient id="SVGID_3_" gradientUnits="userSpaceOnUse" x1="-43.0908" y1="616.2109" x2="17.0722" y2="616.2109" gradientTransform="matrix(8.5333 0 0 -8.5333 369.1334 5433.2671)">
		<stop  offset="0" style="stop-color:#00A2CC"/>
		<stop  offset="1" style="stop-color:#2B32B2"/>
	</linearGradient>
	<path style="fill:url(#SVGID_3_);" d="M332.8,217.6H384c4.71,0,8.533-3.823,8.533-8.533V140.8c0-4.71-3.823-8.533-8.533-8.533
		h-51.2c-4.71,0-8.533,3.823-8.533,8.533v68.267C324.267,213.777,328.09,217.6,332.8,217.6z M341.333,149.333h34.133v51.2h-34.133
		V149.333z"/>
	
		<linearGradient id="SVGID_4_" gradientUnits="userSpaceOnUse" x1="-43.0908" y1="608.2109" x2="17.0722" y2="608.2109" gradientTransform="matrix(8.5333 0 0 -8.5333 369.1334 5433.2671)">
		<stop  offset="0" style="stop-color:#00A2CC"/>
		<stop  offset="1" style="stop-color:#2B32B2"/>
	</linearGradient>
	<rect x="426.667" y="234.667" style="fill:url(#SVGID_4_);" width="17.067" height="17.067"/>
	
		<linearGradient id="SVGID_5_" gradientUnits="userSpaceOnUse" x1="-43.0908" y1="608.2109" x2="17.0722" y2="608.2109" gradientTransform="matrix(8.5333 0 0 -8.5333 369.1334 5433.2671)">
		<stop  offset="0" style="stop-color:#00A2CC"/>
		<stop  offset="1" style="stop-color:#2B32B2"/>
	</linearGradient>
	<rect x="324.267" y="234.667" style="fill:url(#SVGID_5_);" width="34.133" height="17.067"/>
	
		<linearGradient id="SVGID_6_" gradientUnits="userSpaceOnUse" x1="-43.0908" y1="586.2109" x2="17.0722" y2="586.2109" gradientTransform="matrix(8.5333 0 0 -8.5333 369.1334 5433.2671)">
		<stop  offset="0" style="stop-color:#00A2CC"/>
		<stop  offset="1" style="stop-color:#2B32B2"/>
	</linearGradient>
	<rect x="17.067" y="422.4" style="fill:url(#SVGID_6_);" width="145.067" height="17.067"/>
</g>
<g>
</g>
<g>
</g>
<g>
</g>
<g>
</g>
<g>
</g>
<g>
</g>
<g>
</g>
<g>
</g>
<g>
</g>
<g>
</g>
<g>
</g>
<g>
</g>
<g>
</g>
<g>
</g>
<g>
</g>
</svg>
