<svg id="Gradient" height="512" viewBox="0 0 512 512" width="512" xmlns="http://www.w3.org/2000/svg" xmlns:xlink="http://www.w3.org/1999/xlink"><linearGradient id="linear-gradient" gradientUnits="userSpaceOnUse" x1="256" x2="256" y1="496" y2="16"><stop offset="0" stop-color="#12c2e9"/><stop offset=".5" stop-color="#c471ed"/><stop offset="1" stop-color="#f64f59"/></linearGradient><path d="m104 400h32a8 8 0 0 0 8-8v-32a8 8 0 0 0 -8-8h-32a8 8 0 0 0 -8 8v32a8 8 0 0 0 8 8zm8-32h16v16h-16zm56 32h32a8 8 0 0 0 8-8v-32a8 8 0 0 0 -8-8h-32a8 8 0 0 0 -8 8v32a8 8 0 0 0 8 8zm8-32h16v16h-16zm-8 96h32a8 8 0 0 0 8-8v-32a8 8 0 0 0 -8-8h-32a8 8 0 0 0 -8 8v32a8 8 0 0 0 8 8zm8-32h16v16h-16zm56 32h32a8 8 0 0 0 8-8v-32a8 8 0 0 0 -8-8h-32a8 8 0 0 0 -8 8v32a8 8 0 0 0 8 8zm8-32h16v16h-16zm-8-32h32a8 8 0 0 0 8-8v-32a8 8 0 0 0 -8-8h-32a8 8 0 0 0 -8 8v32a8 8 0 0 0 8 8zm8-32h16v16h-16zm56 32h32a8 8 0 0 0 8-8v-32a8 8 0 0 0 -8-8h-32a8 8 0 0 0 -8 8v32a8 8 0 0 0 8 8zm8-32h16v16h-16zm56 32h32a8 8 0 0 0 8-8v-32a8 8 0 0 0 -8-8h-32a8 8 0 0 0 -8 8v32a8 8 0 0 0 8 8zm8-32h16v16h-16zm56 32h32a8 8 0 0 0 8-8v-32a8 8 0 0 0 -8-8h-32a8 8 0 0 0 -8 8v32a8 8 0 0 0 8 8zm8-32h16v16h-16zm-8 96h32a8 8 0 0 0 8-8v-32a8 8 0 0 0 -8-8h-32a8 8 0 0 0 -8 8v32a8 8 0 0 0 8 8zm8-32h16v16h-16zm-328 32h32a8 8 0 0 0 8-8v-32a8 8 0 0 0 -8-8h-32a8 8 0 0 0 -8 8v32a8 8 0 0 0 8 8zm8-32h16v16h-16zm376-112h-24v-56a8 8 0 0 0 -4.751-7.311l-144-64a8 8 0 0 0 -11.249 7.311v51.69l-17.735-7.883-6.265-187.942v-31.865a8 8 0 0 0 -8-8h-32a8 8 0 0 0 -8 8v31.865l-5.381 161.435-55.37-24.609a8 8 0 0 0 -11.249 7.309v51.69l-17.735-7.883-6.265-187.942v-31.865a8 8 0 0 0 -8-8h-32a8 8 0 0 0 -8 8v31.865l-5.381 161.435-55.37-24.609a8 8 0 0 0 -11.249 7.309v288a8 8 0 0 0 8 8h464a8 8 0 0 0 8-8v-160a8 8 0 0 0 -8-8zm-168-107.689 128 56.889v50.8h-128zm-72-180.311h16v16h-16zm-.262 32h16.524l5.753 172.585-27.621-12.275zm-71.738 148.311 128 56.889v50.8h-128zm-72-180.311h16v16h-16zm-.262 32h16.524l5.753 172.585-27.621-12.275zm-39.738 264v152h-32v-267.69l128 56.89v50.8h-88a8 8 0 0 0 -8 8zm320 152h-80v-48h80zm96 0h-80v-56a8 8 0 0 0 -8-8h-96a8 8 0 0 0 -8 8v56h-208v-144h400z" fill="url(#linear-gradient)"/></svg>